<svg xmlns="http://www.w3.org/2000/svg" width="78.715" height="69.696" viewBox="0 0 78.715 69.696">
  <g id="Сгруппировать_509" data-name="Сгруппировать 509" transform="translate(-329.886 -607.247)">
    <path id="Контур_264" data-name="Контур 264" d="M329.886,676.943h6.346V626.961l-6.346-1.4v51.38Z" fill="$primary-color" fill-rule="evenodd" opacity="0.2"/>
    <path id="Контур_265" data-name="Контур 265" d="M338.413,676.943h7.811V622.133l-7.811-1.972v56.783Z" fill="$primary-color" fill-rule="evenodd" opacity="0.5"/>
    <path id="Контур_266" data-name="Контур 266" d="M348.937,676.943h9.845V616.4l-9.845-2.915v63.454Z" fill="$primary-color" fill-rule="evenodd"/>
    <path id="Контур_267" data-name="Контур 267" d="M408.6,623.307q-2.924-1.019-6-2.085l-14.126-4.9q-7.91-2.742-16.847-5.846c-3.009-1.043-6.106-2.12-9.32-3.231v69.7h46.3V623.307Zm-36.977,42.855V621.278q8.951,2.6,16.852,4.9l14.121,4.1v37.628l-14.121-.8C383.2,666.815,377.591,666.5,371.624,666.162Z" fill="#ee1414" fill-rule="evenodd"/>
  </g>
</svg>
