<svg xmlns="http://www.w3.org/2000/svg" width="15.188" height="15.185" viewBox="0 0 15.188 15.185">
  <path id="phone" d="M15.024,11.52a8.506,8.506,0,0,0-2.615-2.278,1.56,1.56,0,0,0-.762-.22A.948.948,0,0,0,10.8,9.5a9.39,9.39,0,0,1-.73.807A1.214,1.214,0,0,1,8.3,10.126L5.064,6.892A1.218,1.218,0,0,1,4.886,5.12a9.483,9.483,0,0,1,.808-.731.936.936,0,0,0,.435-.562,1.392,1.392,0,0,0-.184-1.05A8.5,8.5,0,0,0,3.669.165,1.389,1.389,0,0,0,2.038.411l-.715.714A3.9,3.9,0,0,0,.106,4.932,8.052,8.052,0,0,0,2.438,8.611l4.14,4.14c1.618,1.618,3.16,2.438,4.584,2.438h0a4.055,4.055,0,0,0,2.9-1.323l.714-.714A1.382,1.382,0,0,0,15.024,11.52Z" transform="translate(0 -0.004)" fill="$primary-color"/>
</svg>
