<svg xmlns="http://www.w3.org/2000/svg" width="15.188" height="15.185"><path id="phone" d="M15.024 11.52a8.506 8.506 0 00-2.615-2.278 1.56 1.56 0 00-.762-.22.948.948 0 00-.847.478 9.39 9.39 0 01-.73.807 1.214 1.214 0 01-1.77-.181L5.064 6.892a1.218 1.218 0 01-.178-1.772 9.483 9.483 0 01.808-.731.936.936 0 00.435-.562 1.392 1.392 0 00-.184-1.05A8.5 8.5 0 003.669.165a1.389 1.389 0 00-1.631.246l-.715.714A3.9 3.9 0 00.106 4.932a8.052 8.052 0 002.332 3.679l4.14 4.14c1.618 1.618 3.16 2.438 4.584 2.438a4.055 4.055 0 002.9-1.323l.714-.714a1.382 1.382 0 00.248-1.632z" transform="translate(0 -.004)" fill="$primary-color" opacity=".3"/></svg>